<?xml version="1.0" standalone="no"?><!DOCTYPE svg PUBLIC "-//W3C//DTD SVG 1.1//EN" "http://www.w3.org/Graphics/SVG/1.1/DTD/svg11.dtd"><svg class="icon" height="512" viewBox="0 0 1024 1024" version="1.1" xmlns="http://www.w3.org/2000/svg"><path d="M512 63.9C264.5 63.9 63.9 264.5 63.9 512c0 247.5 200.6 448.1 448.1 448.1 247.5 0 448.1-200.6 448.1-448.1 0-247.5-200.6-448.1-448.1-448.1z m0 784.2h-1.7c-97.5-0.5-213.2-42.5-274.3-109.3 23.8-12.2 79.1-24 109.3-37.1 56-24.3 74.8-62.8 79.8-94.9-33.4-28.8-60.4-71.6-77-118.2-23.4-25.5-37.3-53.3-37.3-76.3 0-16.3 7.1-27.2 19.5-34.6 4.8-112 85-201.2 183.8-201.8h0.9c0.8 0 1.5 0.1 2.3 0.1 99.4 1.4 179.7 92.5 182.6 206 8.5 7.2 13.4 16.9 13.4 30.2 0 19.5-10.1 42.6-27.5 64.7-16.9 53.4-47.6 103-86.1 134 6 31.2 25.5 67.3 79 90.6 30.2 13.1 85.5 24.9 109.3 37.1-61.4 67.3-177.8 109.5-276 109.5z" fill="#193E72" /></svg>